<svg xmlns="http://www.w3.org/2000/svg" viewBox="0 0 96 96">
  <g fill="#050505">
    <circle cx="34" cy="20" r="7"/>
    <path d="M22 31h10l12 14 23-9 3 7-28 12-12-13-2 18-18 13-5-7 15-11 2-16-10-10z"/>
    <path d="M20 33 9 22l3-4 5 2 4-2 4 2-1 4 5 4z"/>
    <path d="M13 18c-1-5 4-9 9-8-1-3 2-6 6-5-1 2 0 4 2 5 2 2 4 4 4 7-1 5-6 8-11 8-4 0-8-3-10-7z"/>
    <path d="M60 54h23l7 7v10l-7 7H60l-7-7V61z"/>
    <rect x="60" y="60" width="30" height="3"/>
    <rect x="60" y="66" width="30" height="3"/>
    <rect x="60" y="72" width="30" height="3"/>
    <path d="M68 54c-3-6 1-11 7-12-1-4 2-8 6-8-1 3 1 5 3 7 3 2 5 6 5 10 0 7-6 12-13 12-3 0-6-1-8-3z"/>
    <path d="M82 53c-2-4 0-8 4-9 0-3 2-5 5-5-1 2 0 3 2 4 2 2 3 4 3 7 0 5-4 9-9 9-2 0-4-1-5-2z"/>
  </g>
</svg>
