<svg xmlns="http://www.w3.org/2000/svg" viewBox="0 0 1800 1200">
  <defs>
    <style>
      .bg { fill: #020503; }
      .panel { fill: #031108; stroke: #19ff7a; stroke-width: 3; }
      .dim { stroke: #0d6b3a; stroke-width: 2; fill: none; opacity: .85; }
      .glow { stroke: #39ff93; stroke-width: 4; fill: none; }
      .soft { stroke: #1db85f; stroke-width: 2; fill: none; }
      .solid { fill: #19ff7a; }
      .ink { fill: #062714; }
      .scan { stroke: #0f3d22; stroke-width: 1; opacity: .32; }
    </style>
    <pattern id="scanlines" width="8" height="8" patternUnits="userSpaceOnUse">
      <path d="M0 1H8M0 5H8" class="scan"/>
    </pattern>
    <g id="robotPodium">
      <rect x="-56" y="18" width="112" height="112" class="ink" stroke="#19ff7a" stroke-width="4"/>
      <rect x="-36" y="42" width="26" height="16" class="solid"/>
      <rect x="10" y="42" width="26" height="16" class="solid"/>
      <rect x="-24" y="82" width="48" height="14" class="solid"/>
      <rect x="-70" y="138" width="140" height="118" class="ink" stroke="#19ff7a" stroke-width="4"/>
      <path d="M-90 122H90L74 142H-74Z" class="ink" stroke="#19ff7a" stroke-width="4"/>
      <rect x="-12" y="-2" width="24" height="32" class="ink" stroke="#19ff7a" stroke-width="4"/>
      <path d="M-12 6 0 0 12 6" class="glow"/>
    </g>
    <g id="map">
      <path d="M20 38 56 18l62 6 29-16 63 8 46-8 42 16 54 3 20 25 34 3 22 18-14 13-36 7-6 20-28 17-23 28-61-8-34 14-35-6-44 10-41-8-40 11-57-10-36 7-18-22 12-13-11-26 18-18 22 2 19-15 22 1z" class="dim"/>
    </g>
    <g id="spotlights">
      <path d="M0 0 140 140" class="soft"/>
      <path d="M44 0 180 118" class="soft"/>
      <path d="M-44 0 -180 118" class="soft"/>
    </g>
  </defs>
  <rect width="1800" height="1200" class="bg"/>
  <g transform="translate(18 18)">
    <rect width="1764" height="1164" fill="url(#scanlines)" opacity=".35"/>

    <g transform="translate(0 0)">
      <rect x="0" y="0" width="564" height="564" class="panel"/>
      <g transform="translate(96 92)">
        <use href="#robotPodium" transform="translate(82 176) scale(.8)"/>
        <use href="#map" transform="translate(196 84) scale(1.15)"/>
        <path d="M226 62c38 18 58 38 78 62M278 38c58 20 92 55 118 94" class="glow"/>
        <polyline points="168,282 214,244 252,252 312,176 354,184" class="glow"/>
        <polyline points="176,318 228,298 278,232 342,246 398,198" class="soft"/>
        <rect x="34" y="40" width="118" height="74" class="ink" stroke="#19ff7a" stroke-width="3"/>
        <polyline points="44,88 66,82 86,58 112,72 142,48" class="glow"/>
        <rect x="360" y="232" width="110" height="78" class="ink" stroke="#19ff7a" stroke-width="3"/>
        <path d="M376 290h24l16-20 16 16 16-32 18 36" class="glow"/>
      </g>
    </g>

    <g transform="translate(600 0)">
      <rect x="0" y="0" width="564" height="564" class="panel"/>
      <g transform="translate(68 64)">
        <use href="#robotPodium" transform="translate(82 220) scale(.72)"/>
        <use href="#robotPodium" transform="translate(220 168) scale(.56)"/>
        <use href="#robotPodium" transform="translate(330 124) scale(.42)"/>
        <use href="#robotPodium" transform="translate(412 92) scale(.3)"/>
        <path d="M130 276 262 224 372 176 446 138" class="glow"/>
        <path d="M120 322 250 268 352 220 432 178" class="soft"/>
        <path d="M160 118c20 20 26 44 24 66M270 72c20 24 24 50 22 70M362 36c20 24 24 48 20 70" class="glow"/>
        <path d="M34 326c40-22 96-18 136 12M184 290c42-20 92-12 136 18M314 248c34-16 82-8 122 18" class="soft"/>
      </g>
    </g>

    <g transform="translate(1200 0)">
      <rect x="0" y="0" width="564" height="564" class="panel"/>
      <g transform="translate(72 84)">
        <use href="#robotPodium" transform="translate(86 250) scale(.68)"/>
        <path d="M54 250 160 204 244 152 340 108" class="soft"/>
        <path d="M64 286 178 246 266 194 354 144" class="glow"/>
        <path d="M84 316 200 290 302 232 384 178" class="soft"/>
        <g transform="translate(198 44)">
          <rect x="-8" y="192" width="18" height="74" class="solid"/>
          <rect x="74" y="144" width="18" height="122" class="solid"/>
          <rect x="156" y="102" width="18" height="164" class="solid"/>
          <rect x="238" y="66" width="18" height="200" class="solid"/>
          <circle cx="0" cy="192" r="16" class="glow"/>
          <circle cx="84" cy="144" r="16" class="glow"/>
          <circle cx="166" cy="102" r="16" class="glow"/>
          <circle cx="248" cy="66" r="16" class="glow"/>
        </g>
        <use href="#map" transform="translate(176 12) scale(.94)"/>
      </g>
    </g>

    <g transform="translate(0 600)">
      <rect x="0" y="0" width="564" height="564" class="panel"/>
      <g transform="translate(72 70)">
        <circle cx="246" cy="180" r="148" class="soft"/>
        <path d="M108 36 182 152M384 36 308 152" class="glow"/>
        <circle cx="108" cy="36" r="22" class="solid"/>
        <circle cx="384" cy="36" r="22" class="solid"/>
        <use href="#robotPodium" transform="translate(244 208) scale(.74)"/>
        <rect x="26" y="212" width="84" height="96" class="ink" stroke="#19ff7a" stroke-width="3"/>
        <rect x="380" y="212" width="84" height="96" class="ink" stroke="#19ff7a" stroke-width="3"/>
        <rect x="56" y="244" width="24" height="30" class="solid"/>
        <rect x="410" y="244" width="24" height="30" class="solid"/>
        <path d="M190 304h112" class="glow"/>
        <path d="M188 326h116" class="soft"/>
        <rect x="144" y="360" width="204" height="60" class="ink" stroke="#19ff7a" stroke-width="3"/>
      </g>
    </g>

    <g transform="translate(600 600)">
      <rect x="0" y="0" width="564" height="564" class="panel"/>
      <g transform="translate(72 78)">
        <rect x="162" y="164" width="162" height="140" class="ink" stroke="#19ff7a" stroke-width="4"/>
        <rect x="192" y="126" width="102" height="44" class="ink" stroke="#19ff7a" stroke-width="4"/>
        <circle cx="244" cy="234" r="168" class="soft"/>
        <circle cx="244" cy="234" r="112" class="glow"/>
        <path d="M244 66v336M76 234h336" class="soft"/>
        <path d="M184 210 88 134M306 210 398 134M184 262 90 334M306 262 398 334" class="glow"/>
        <g class="dim">
          <path d="M72 132 112 132 112 172 72 172z"/>
          <path d="M378 132 418 132 418 172 378 172z"/>
          <path d="M74 334 114 334 114 374 74 374z"/>
          <path d="M376 334 416 334 416 374 376 374z"/>
        </g>
        <path d="M112 152 168 214M398 152 320 214M112 354 168 284M398 354 320 284" class="glow"/>
      </g>
    </g>

    <g transform="translate(1200 600)">
      <rect x="0" y="0" width="564" height="564" class="panel"/>
      <g transform="translate(82 72)">
        <use href="#robotPodium" transform="translate(246 214) scale(.78)"/>
        <path d="M24 218 112 218M380 218 468 218" class="soft"/>
        <path d="M62 168 164 206M426 168 324 206" class="soft"/>
        <circle cx="246" cy="204" r="144" class="glow"/>
        <circle cx="246" cy="204" r="96" class="soft"/>
        <path d="M50 352c42-10 84-34 122-70M440 352c-42-10-84-34-122-70" class="soft"/>
        <path d="M74 102 142 142M418 102 350 142" class="glow"/>
        <path d="M80 96l34-34M412 96l-34-34M246 388v-56" class="glow"/>
      </g>
    </g>
  </g>
</svg>
