<svg xmlns="http://www.w3.org/2000/svg" viewBox="0 0 64 64">
  <g shape-rendering="crispEdges">
    <rect x="14" y="50" width="36" height="6" fill="#09100d"/>
    <rect x="16" y="24" width="32" height="26" fill="#274036"/>
    <rect x="14" y="18" width="36" height="6" fill="#446257"/>
    <rect x="12" y="24" width="4" height="26" fill="#131c18"/>
    <rect x="48" y="24" width="4" height="26" fill="#131c18"/>
    <rect x="18" y="28" width="28" height="10" fill="#0e1613"/>
    <rect x="20" y="30" width="6" height="4" fill="#86ffd2"/>
    <rect x="28" y="30" width="8" height="4" fill="#86ffd2"/>
    <rect x="38" y="30" width="6" height="4" fill="#86ffd2"/>
    <rect x="19" y="40" width="26" height="2" fill="#84d9b7"/>
    <rect x="26" y="38" width="12" height="12" fill="#e0ece5"/>
    <rect x="18" y="14" width="28" height="4" fill="#5d7e6f"/>
    <rect x="22" y="10" width="20" height="4" fill="#e7efe9"/>
    <rect x="20" y="6" width="24" height="4" fill="#d6e4dc"/>
    <rect x="28" y="2" width="8" height="4" fill="#e7efe9"/>
    <rect x="30" y="0" width="4" height="2" fill="#e7efe9"/>
    <rect x="18" y="20" width="3" height="2" fill="#ffd86c"/>
    <rect x="43" y="20" width="3" height="2" fill="#ffd86c"/>
    <rect x="16" y="52" width="32" height="2" fill="#8cffc9"/>
  </g>
</svg>
