<svg xmlns="http://www.w3.org/2000/svg" viewBox="0 0 64 64">
  <g shape-rendering="crispEdges">
    <rect x="18" y="48" width="28" height="6" fill="#0a0f0d"/>
    <rect x="20" y="24" width="24" height="24" fill="#23352c"/>
    <rect x="18" y="22" width="28" height="4" fill="#31483c"/>
    <rect x="16" y="24" width="4" height="24" fill="#16211c"/>
    <rect x="44" y="24" width="4" height="24" fill="#16211c"/>
    <rect x="22" y="28" width="20" height="14" fill="#111815"/>
    <rect x="24" y="30" width="7" height="4" fill="#86ffd2"/>
    <rect x="33" y="30" width="7" height="4" fill="#86ffd2"/>
    <rect x="29" y="39" width="6" height="9" fill="#c8d8cf"/>
    <rect x="24" y="18" width="16" height="4" fill="#4f6d5d"/>
    <rect x="28" y="14" width="8" height="4" fill="#d7e0d9"/>
    <rect x="30" y="10" width="4" height="4" fill="#d7e0d9"/>
    <rect x="33" y="9" width="2" height="1" fill="#d7e0d9"/>
    <rect x="26" y="26" width="1" height="1" fill="#70d3af"/>
    <rect x="37" y="26" width="1" height="1" fill="#70d3af"/>
    <rect x="22" y="50" width="20" height="2" fill="#6ef7b4"/>
  </g>
</svg>
