<svg xmlns="http://www.w3.org/2000/svg" viewBox="0 0 64 64">
  <g shape-rendering="crispEdges">
    <rect x="16" y="48" width="32" height="6" fill="#09100d"/>
    <rect x="18" y="22" width="28" height="26" fill="#253931"/>
    <rect x="16" y="18" width="32" height="6" fill="#395247"/>
    <rect x="14" y="22" width="4" height="26" fill="#16201c"/>
    <rect x="46" y="22" width="4" height="26" fill="#16201c"/>
    <rect x="20" y="26" width="24" height="12" fill="#101815"/>
    <rect x="22" y="28" width="6" height="5" fill="#86ffd2"/>
    <rect x="30" y="28" width="6" height="5" fill="#86ffd2"/>
    <rect x="38" y="28" width="4" height="5" fill="#86ffd2"/>
    <rect x="21" y="40" width="22" height="2" fill="#76c9aa"/>
    <rect x="27" y="38" width="10" height="10" fill="#dbe7e0"/>
    <rect x="20" y="14" width="24" height="4" fill="#567566"/>
    <rect x="24" y="10" width="16" height="4" fill="#dfe6e1"/>
    <rect x="28" y="6" width="8" height="4" fill="#dfe6e1"/>
    <rect x="31" y="2" width="2" height="4" fill="#dfe6e1"/>
    <rect x="24" y="20" width="2" height="2" fill="#ffe47f"/>
    <rect x="38" y="20" width="2" height="2" fill="#ffe47f"/>
    <rect x="20" y="50" width="24" height="2" fill="#7afcc1"/>
  </g>
</svg>
