<svg xmlns="http://www.w3.org/2000/svg" viewBox="0 0 1800 1200">
  <defs>
    <style>
      .bg { fill: #140f02; }
      .panel { fill: #201804; stroke: #ffbe2f; stroke-width: 3; }
      .dim { stroke: #8c6a14; stroke-width: 2; fill: none; opacity: .9; }
      .glow { stroke: #ffe08a; stroke-width: 4; fill: none; }
      .soft { stroke: #ffbe2f; stroke-width: 2; fill: none; }
      .solid { fill: #ffd053; }
      .ink { fill: #302406; }
      .ivory { fill: #fff1c5; opacity: .92; }
      .scan { stroke: #4d3a0d; stroke-width: 1; opacity: .32; }
    </style>
    <pattern id="scanlines8" width="8" height="8" patternUnits="userSpaceOnUse">
      <path d="M0 1H8M0 5H8" class="scan"/>
    </pattern>
    <g id="column">
      <rect x="-24" y="-110" width="48" height="184" class="ink" stroke="#ffbe2f" stroke-width="4"/>
      <rect x="-40" y="-132" width="80" height="22" class="ink" stroke="#ffbe2f" stroke-width="4"/>
      <rect x="-46" y="74" width="92" height="24" class="ink" stroke="#ffbe2f" stroke-width="4"/>
      <path d="M-12-96V60M0-96V60M12-96V60" class="soft"/>
    </g>
    <g id="coin">
      <circle cx="0" cy="0" r="54" class="ink" stroke="#ffe08a" stroke-width="4"/>
      <circle cx="0" cy="0" r="34" class="solid"/>
      <path d="M-18 0H18M0-18V18" class="glow"/>
    </g>
    <g id="crown">
      <path d="M-86 44-68-42-20 2 0-56 20 2 68-42 86 44Z" class="ink" stroke="#ffbe2f" stroke-width="4"/>
      <path d="M-86 44H86" class="glow"/>
      <circle cx="-52" cy="-18" r="8" class="ivory"/>
      <circle cx="0" cy="-28" r="8" class="ivory"/>
      <circle cx="52" cy="-18" r="8" class="ivory"/>
    </g>
    <g id="ledger">
      <rect x="-78" y="-58" width="156" height="116" class="ink" stroke="#ffbe2f" stroke-width="4"/>
      <path d="M-44-30H42M-44-4H54M-44 22H34" class="soft"/>
      <rect x="-60" y="-36" width="12" height="76" class="solid"/>
    </g>
  </defs>
  <rect width="1800" height="1200" class="bg"/>
  <g transform="translate(18 18)">
    <rect width="1764" height="1164" fill="url(#scanlines8)" opacity=".35"/>

    <g>
      <rect x="24" y="24" width="540" height="540" class="panel"/>
      <rect x="48" y="48" width="492" height="492" class="ink" stroke="#ffbe2f" stroke-width="2"/>
      <use href="#crown" transform="translate(286 178) scale(1.02)"/>
      <use href="#coin" transform="translate(286 330) scale(1.12)"/>
      <path d="M118 122H454M118 158H454M118 432H454" class="dim"/>
      <path d="M128 394c54-22 98-30 140-24 40 6 76 20 118 30 42 10 88 10 150-4" class="soft"/>
      <circle cx="206" cy="412" r="10" class="ivory"/>
      <circle cx="364" cy="420" r="10" class="ivory"/>
    </g>

    <g transform="translate(588 24)">
      <rect width="540" height="540" class="panel"/>
      <rect x="44" y="44" width="452" height="452" class="ink" stroke="#ffbe2f" stroke-width="2"/>
      <use href="#column" transform="translate(156 296) scale(.92)"/>
      <use href="#column" transform="translate(286 244) scale(1.08)"/>
      <use href="#column" transform="translate(414 296) scale(.92)"/>
      <path d="M90 422H450M90 456H450" class="dim"/>
      <path d="M112 154c48 14 86 20 118 18 38-4 74-18 114-42 40-22 82-34 148-40" class="glow"/>
      <circle cx="286" cy="140" r="16" class="solid"/>
    </g>

    <g transform="translate(1152 24)">
      <rect width="540" height="540" class="panel"/>
      <rect x="44" y="44" width="452" height="452" class="ink" stroke="#ffbe2f" stroke-width="2"/>
      <use href="#ledger" transform="translate(174 228)"/>
      <use href="#coin" transform="translate(358 194) scale(.86)"/>
      <use href="#ledger" transform="translate(358 348) scale(1.04)"/>
      <path d="M106 126H438M106 160H438M106 438H438" class="dim"/>
      <path d="M144 292c38-12 70-16 96-12 28 4 56 18 88 42 34 24 66 36 100 38 24 2 52-2 88-12" class="soft"/>
    </g>

    <g transform="translate(24 588)">
      <rect width="540" height="540" class="panel"/>
      <rect x="48" y="48" width="492" height="492" class="ink" stroke="#ffbe2f" stroke-width="2"/>
      <use href="#coin" transform="translate(164 250) scale(.82)"/>
      <use href="#coin" transform="translate(286 178)"/>
      <use href="#coin" transform="translate(408 250) scale(.82)"/>
      <path d="M104 414H438M104 448H438" class="dim"/>
      <path d="M118 338c44-34 82-50 118-50 34 0 64 12 96 38 30 24 62 36 98 36 34 0 74-12 128-42" class="glow"/>
      <path d="M118 126H438M118 160H438" class="dim"/>
    </g>

    <g transform="translate(588 588)">
      <rect width="540" height="540" class="panel"/>
      <rect x="44" y="44" width="452" height="452" class="ink" stroke="#ffbe2f" stroke-width="2"/>
      <use href="#crown" transform="translate(172 214) scale(.8)"/>
      <use href="#ledger" transform="translate(286 338) scale(1.04)"/>
      <use href="#crown" transform="translate(404 214) scale(.8)"/>
      <path d="M92 430H448M92 462H448" class="dim"/>
      <path d="M122 140c34 16 62 24 86 24 30 0 54-12 80-36 26-22 50-34 76-34 30 0 54 14 80 42 22 24 48 42 82 54" class="soft"/>
      <path d="M118 282c46 10 84 14 118 12 34-2 68-12 104-30 36-18 72-26 112-26 26 0 58 4 98 14" class="glow"/>
    </g>

    <g transform="translate(1152 588)">
      <rect width="540" height="540" class="panel"/>
      <rect x="48" y="48" width="492" height="492" class="ink" stroke="#ffbe2f" stroke-width="2"/>
      <use href="#column" transform="translate(154 336) scale(.78)"/>
      <use href="#crown" transform="translate(286 168)"/>
      <use href="#column" transform="translate(418 336) scale(.78)"/>
      <use href="#coin" transform="translate(286 342) scale(.98)"/>
      <path d="M114 118H462M114 152H462M114 438H462" class="dim"/>
      <path d="M132 254c48 18 88 24 122 22 36-4 70-16 106-38 38-24 78-34 126-34 24 0 52 2 84 8" class="soft"/>
      <circle cx="232" cy="372" r="10" class="ivory"/>
      <circle cx="340" cy="372" r="10" class="ivory"/>
    </g>
  </g>
</svg>
