<svg xmlns="http://www.w3.org/2000/svg" viewBox="0 0 64 64">
  <g shape-rendering="crispEdges">
    <rect x="9" y="22" width="18" height="24" rx="2" fill="#04110b"/>
    <rect x="11" y="24" width="14" height="20" fill="#d9fff1"/>
    <rect x="13" y="26" width="10" height="4" fill="#0b1d15"/>
    <rect x="13" y="33" width="10" height="2" fill="#0b1d15"/>
    <rect x="13" y="39" width="10" height="2" fill="#0b1d15"/>
    <rect x="15" y="46" width="6" height="2" fill="#6ef7b4"/>
    <rect x="28" y="18" width="18" height="24" fill="#d9fff1"/>
    <rect x="30" y="20" width="14" height="20" fill="#f7fffb"/>
    <rect x="31" y="10" width="12" height="6" fill="#d9fff1"/>
    <rect x="29" y="12" width="16" height="2" fill="#0b1d15"/>
    <rect x="27" y="16" width="20" height="2" fill="#0b1d15"/>
    <rect x="31" y="22" width="12" height="10" fill="#d9fff1"/>
    <rect x="31" y="34" width="12" height="6" fill="#9be8c6"/>
    <rect x="29" y="42" width="18" height="10" fill="#d9fff1"/>
    <rect x="26" y="50" width="24" height="4" fill="#0b1d15"/>
    <rect x="49" y="22" width="5" height="20" transform="rotate(28 49 22)" fill="#d9fff1"/>
    <rect x="48" y="21" width="2" height="24" transform="rotate(28 48 21)" fill="#0b1d15"/>
    <rect x="34" y="26" width="2" height="2" fill="#0b1d15"/>
    <rect x="38" y="26" width="2" height="2" fill="#0b1d15"/>
    <rect x="35" y="30" width="4" height="2" fill="#0b1d15"/>
    <rect x="35" y="45" width="8" height="2" fill="#0b1d15"/>
    <rect x="35" y="49" width="8" height="2" fill="#0b1d15"/>
    <path d="M18 31 19 34 22 34 20 36 21 39 18 37 15 39 16 36 14 34 17 34Z" fill="#0b1d15"/>
    <rect x="8" y="21" width="20" height="2" fill="#0b1d15"/>
    <rect x="8" y="46" width="20" height="2" fill="#0b1d15"/>
    <rect x="8" y="22" width="2" height="24" fill="#0b1d15"/>
    <rect x="26" y="22" width="2" height="24" fill="#0b1d15"/>
    <rect x="27" y="18" width="20" height="2" fill="#0b1d15"/>
    <rect x="27" y="42" width="20" height="2" fill="#0b1d15"/>
    <rect x="27" y="19" width="2" height="23" fill="#0b1d15"/>
    <rect x="45" y="19" width="2" height="23" fill="#0b1d15"/>
  </g>
</svg>
